<svg width="24" height="24" viewBox="0 0 24 24" fill="none" xmlns="http://www.w3.org/2000/svg">
<mask id="mask0_3334_834" style="mask-type:alpha" maskUnits="userSpaceOnUse" x="0" y="0" width="24" height="24">
<rect width="24" height="24" fill="#D9D9D9"/>
</mask>
<g mask="url(#mask0_3334_834)">
<path d="M7.54775 16.4523L14.5658 14.5658L16.4523 7.54775L9.43425 9.43425L7.54775 16.4523ZM11.9985 13.3805C11.6147 13.3805 11.2889 13.2462 11.0213 12.9775C10.7534 12.7087 10.6195 12.3823 10.6195 11.9985C10.6195 11.6147 10.7538 11.2889 11.0225 11.0213C11.2913 10.7534 11.6177 10.6195 12.0015 10.6195C12.3853 10.6195 12.7111 10.7538 12.9788 11.0225C13.2466 11.2913 13.3805 11.6177 13.3805 12.0015C13.3805 12.3853 13.2462 12.7111 12.9775 12.9788C12.7087 13.2466 12.3823 13.3805 11.9985 13.3805ZM12 22.2033C10.5848 22.2033 9.257 21.9356 8.0165 21.4003C6.77584 20.8649 5.69667 20.1385 4.779 19.221C3.8615 18.3033 3.13509 17.2242 2.59975 15.9835C2.06442 14.743 1.79675 13.4152 1.79675 12C1.79675 10.5848 2.06442 9.257 2.59975 8.0165C3.13509 6.77584 3.8615 5.69667 4.779 4.779C5.69667 3.8615 6.77584 3.13509 8.0165 2.59975C9.257 2.06442 10.5848 1.79675 12 1.79675C13.4152 1.79675 14.743 2.06442 15.9835 2.59975C17.2242 3.13509 18.3033 3.8615 19.221 4.779C20.1385 5.69667 20.8649 6.77584 21.4003 8.0165C21.9356 9.257 22.2033 10.5848 22.2033 12C22.2033 13.4152 21.9356 14.743 21.4003 15.9835C20.8649 17.2242 20.1385 18.3033 19.221 19.221C18.3033 20.1385 17.2242 20.8649 15.9835 21.4003C14.743 21.9356 13.4152 22.2033 12 22.2033ZM12 19.9283C14.2047 19.9283 16.0773 19.1581 17.6178 17.6178C19.1581 16.0773 19.9283 14.2047 19.9283 12C19.9283 9.79534 19.1581 7.92275 17.6178 6.38225C16.0773 4.84192 14.2047 4.07175 12 4.07175C9.79534 4.07175 7.92275 4.84192 6.38225 6.38225C4.84192 7.92275 4.07175 9.79534 4.07175 12C4.07175 14.2047 4.84192 16.0773 6.38225 17.6178C7.92275 19.1581 9.79534 19.9283 12 19.9283Z" fill="#1C1B1F"/>
</g>
</svg>
