<svg width="89" height="27" viewBox="0 0 89 27" fill="none" xmlns="http://www.w3.org/2000/svg">
<rect width="89" height="27" rx="5" fill="#E3C5FC"/>
<path d="M33.308 17.108H38.06V17.828H27.74V17.108H32.492V14.588H29.636C29.38 14.588 29.176 14.524 29.024 14.396C28.88 14.26 28.808 14.068 28.808 13.82V11.072H35.84V8.996H28.808V8.276H36.656V11.792H29.624V13.676C29.624 13.732 29.64 13.78 29.672 13.82C29.704 13.852 29.748 13.868 29.804 13.868H36.872V14.588H33.308V17.108ZM49.4647 16.844V17.564H39.1447V16.844H47.0887C47.2487 16.676 47.3287 16.348 47.3287 15.86V9.14H39.9967V8.42H48.1447V15.788C48.1447 15.98 48.1247 16.18 48.0847 16.388C48.0447 16.588 47.9887 16.74 47.9167 16.844H49.4647ZM59.9334 15.896H59.1174V7.52H59.9334V15.896ZM54.0054 13.736C53.4454 13.736 52.9454 13.616 52.5054 13.376C52.0654 13.128 51.7214 12.784 51.4734 12.344C51.2334 11.904 51.1134 11.408 51.1134 10.856C51.1134 10.296 51.2334 9.8 51.4734 9.368C51.7214 8.928 52.0614 8.588 52.4934 8.348C52.9334 8.1 53.4374 7.976 54.0054 7.976C54.5814 7.976 55.0894 8.1 55.5294 8.348C55.9694 8.588 56.3134 8.928 56.5614 9.368C56.8094 9.8 56.9334 10.296 56.9334 10.856C56.9334 11.408 56.8094 11.904 56.5614 12.344C56.3134 12.784 55.9654 13.128 55.5174 13.376C55.0774 13.616 54.5734 13.736 54.0054 13.736ZM54.0054 13.016C54.6614 13.016 55.1774 12.82 55.5534 12.428C55.9294 12.036 56.1174 11.512 56.1174 10.856C56.1174 10.2 55.9294 9.676 55.5534 9.284C55.1774 8.892 54.6614 8.696 54.0054 8.696C53.3654 8.696 52.8574 8.892 52.4814 9.284C52.1134 9.676 51.9294 10.2 51.9294 10.856C51.9294 11.512 52.1134 12.036 52.4814 12.428C52.8574 12.82 53.3654 13.016 54.0054 13.016ZM53.1174 18.68C52.9094 18.68 52.7334 18.612 52.5894 18.476C52.4454 18.348 52.3734 18.184 52.3734 17.984V14.804H53.1894V17.792C53.1894 17.904 53.2494 17.96 53.3694 17.96H60.1494V18.68H53.1174Z" fill="black"/>
</svg>
